<svg preserveAspectRatio="none" width="100%" height="100%" overflow="visible" style="display: block;" viewBox="0 0 126.01 49.9764" fill="none" xmlns="http://www.w3.org/2000/svg">
<g id="Group">
<path id="Vector" d="M21.5082 25.3573C18.923 25.3573 16.8297 27.4434 16.8297 30.0198C16.8297 32.5962 18.923 34.6772 21.5082 34.6772C24.0934 34.6772 26.1815 32.591 26.1815 30.0198C26.1815 27.4486 24.0882 25.3573 21.5082 25.3573Z" fill="var(--fill-0, #233243)"/>
<path id="Vector_2" d="M42.9958 29.759C42.933 27.1722 42.0747 22.3428 37.6631 20.1627C37.5114 20.0897 37.3596 20.0167 37.2026 19.9541C35.9152 19.4013 34.3453 19.0623 32.4351 19.0466C32.2729 19.0466 32.1107 19.0466 31.9485 19.0466C30.1221 19.0571 28.4945 19.4795 27.1444 20.0375C27.0083 20.0949 26.8722 20.1523 26.7414 20.2097C26.5582 20.2931 26.3856 20.3766 26.2129 20.46C26.2129 20.46 26.2129 20.46 26.2024 20.46C24.8261 21.1484 23.816 21.9203 23.2666 22.3897C26.7519 23.1876 29.3475 26.296 29.3475 30.0094C29.3475 31.7826 28.7562 33.4203 27.7566 34.7293C26.9612 35.7724 25.9093 36.6121 24.6952 37.1493C24.9046 37.2379 25.0982 37.337 25.2866 37.457C26.4012 38.1611 27.1444 39.3971 27.1444 40.8105C27.1444 42.6202 25.925 44.1483 24.2609 44.6229C24.0829 44.6751 23.8998 44.7116 23.7061 44.7377C22.9159 44.8837 22.0943 44.9619 21.2622 44.9619C13.9724 44.9619 8.06408 39.0737 8.06408 31.8087C8.06408 31.0473 8.12688 30.3014 8.25247 29.5713C10.037 33.3264 13.5537 36.101 17.7717 36.8781C15.3958 35.5951 13.7578 33.123 13.6636 30.2597C13.5799 29.7695 13.538 29.2688 13.538 28.7525C13.538 24.3872 16.6413 20.7468 20.7651 19.8967C21.1628 19.8185 21.571 19.7611 21.9844 19.7298C21.9635 19.6986 21.9321 19.662 21.8955 19.6099C21.7385 19.4117 21.4611 19.0675 21.0738 18.6503C20.0429 17.5394 18.2636 15.9226 16.0971 15.2029C15.5842 15.0308 15.0504 14.9108 14.4957 14.8587C13.2031 14.5614 11.9733 14.5249 10.8167 14.6761C8.97466 14.9212 7.3262 15.6618 5.91323 16.6475C3.31756 18.4625 1.50687 21.1171 0.732351 23.1094C-0.842845 27.1566 0.22473 36.7268 2.9617 40.1012C6.65111 46.61 15.5737 49.8331 20.6395 49.9635C25.0092 50.0782 31.242 49.5254 37.1346 44.1848C39.8087 41.2538 43.5243 36.5391 42.9905 29.7382L42.9958 29.759Z" fill="var(--fill-0, #382616)"/>
<path id="Vector_3" d="M30.4675 17.9931C33.8143 17.9931 36.5275 15.2892 36.5275 11.9537C36.5275 8.6182 33.8143 5.91426 30.4675 5.91426C27.1206 5.91426 24.4074 8.6182 24.4074 11.9537C24.4074 15.2892 27.1206 17.9931 30.4675 17.9931Z" fill="var(--fill-0, #B8B590)"/>
<path id="Vector_4" d="M15.4481 13.7999C19.2719 13.7999 22.3717 10.7107 22.3717 6.89997C22.3717 3.08922 19.2719 0 15.4481 0C11.6244 0 8.5246 3.08922 8.5246 6.89997C8.5246 10.7107 11.6244 13.7999 15.4481 13.7999Z" fill="var(--fill-0, #B67F4F)"/>
<path id="Vector_5" d="M61.5004 39.7674C60.2235 39.7674 59.0251 39.5118 57.8999 39.0059C56.7748 38.5001 55.791 37.8012 54.9432 36.9041C54.0954 36.0071 53.4308 34.9744 52.9493 33.7958C52.4679 32.6171 52.2271 31.3602 52.2271 30.0146C52.2271 28.669 52.4679 27.3965 52.9493 26.223C53.4308 25.0443 54.0954 24.0117 54.9432 23.1199C55.791 22.228 56.78 21.5292 57.8999 21.0233C59.0251 20.5174 60.2235 20.2618 61.5004 20.2618C63.0285 20.2618 64.4362 20.6112 65.7184 21.3153C67.0005 22.0194 68.0681 22.9582 68.9106 24.1316L66.9953 25.1539C66.4405 25.4511 65.7498 25.3938 65.2735 24.9765C64.8967 24.648 64.4676 24.3611 63.9966 24.1264C63.2116 23.7353 62.3743 23.5371 61.4952 23.5371C60.6683 23.5371 59.8886 23.704 59.1611 24.0378C58.4337 24.3768 57.7953 24.8409 57.2458 25.4355C56.6963 26.03 56.2724 26.7185 55.9636 27.506C55.6549 28.2883 55.5084 29.1228 55.5084 30.0094C55.5084 30.896 55.6654 31.7409 55.9741 32.518C56.2829 33.2951 56.712 33.9835 57.2615 34.5781C57.811 35.1726 58.4442 35.6368 59.1664 35.9758C59.8886 36.3148 60.6631 36.4765 61.4899 36.4765C62.39 36.4765 63.2273 36.2783 64.0019 35.8767C64.4624 35.6368 64.8863 35.3552 65.2578 35.0266C65.7341 34.6094 66.4301 34.5468 66.99 34.8493L68.9001 35.8819C68.0576 37.045 66.99 37.9837 65.7079 38.6878C64.4205 39.3971 63.018 39.7465 61.4899 39.7465L61.5004 39.7674Z" fill="var(--fill-0, #382616)"/>
<path id="Vector_6" d="M71.4592 39.418V20.6165H83.2915V23.0833C83.2915 23.5319 82.9304 23.8917 82.4803 23.8917H74.7456V27.7042H81.5227V30.9795H74.7456V36.1375H82.4803C82.9304 36.1375 83.2915 36.4973 83.2915 36.9459V39.4127H71.4592V39.418Z" fill="var(--fill-0, #382616)"/>
<path id="Vector_7" d="M93.0409 39.418H88.7968L83.8933 25.9727H86.3738C86.9861 25.9727 87.5356 26.3534 87.7449 26.9271L90.9267 35.642L94.4434 25.9727H97.9497L93.0462 39.418H93.0409Z" fill="var(--fill-0, #382616)"/>
<path id="Vector_8" d="M104.821 39.7674C103.581 39.7674 102.45 39.4493 101.43 38.813C100.409 38.1767 99.5982 37.3214 98.9911 36.247C98.384 35.1726 98.0805 33.9835 98.0805 32.6849C98.0805 31.7096 98.2585 30.7917 98.6038 29.9364C98.9545 29.081 99.4359 28.33 100.053 27.6781C100.671 27.0314 101.388 26.5203 102.204 26.1552C103.021 25.7901 103.895 25.6024 104.821 25.6024C105.873 25.6024 106.836 25.8266 107.715 26.2647C108.589 26.708 109.337 27.313 109.944 28.0849C110.556 28.8568 111.001 29.733 111.279 30.7187C111.535 31.6314 111.608 32.5858 111.498 33.5767C111.483 33.7123 111.368 33.8114 111.232 33.8114H101.613C101.739 34.3121 101.948 34.7658 102.23 35.1622C102.513 35.5586 102.879 35.8767 103.319 36.1166C103.759 36.3565 104.261 36.4765 104.816 36.4869C105.391 36.4973 105.915 36.3565 106.386 36.0801C106.857 35.7985 107.249 35.4178 107.563 34.9327L110.918 35.7098C110.368 36.8989 109.552 37.8742 108.463 38.6304C107.375 39.3867 106.155 39.7674 104.81 39.7674H104.821ZM101.503 31.3602H108.134C108.034 30.823 107.825 30.338 107.506 29.9051C107.186 29.4722 106.794 29.1228 106.328 28.8672C105.862 28.6064 105.355 28.4761 104.816 28.4761C104.277 28.4761 103.779 28.6064 103.319 28.8568C102.864 29.1123 102.471 29.4566 102.152 29.8894C101.833 30.3223 101.613 30.8126 101.498 31.3602H101.503Z" fill="var(--fill-0, #382616)"/>
<path id="Vector_9" d="M126.005 30.9273V39.4127H123.99C123.289 39.4127 122.718 38.8443 122.718 38.1454V31.7826C122.718 31.2559 122.588 30.7708 122.326 30.338C122.064 29.9051 121.719 29.5609 121.285 29.3053C120.85 29.0498 120.364 28.9246 119.835 28.9246C119.306 28.9246 118.82 29.055 118.385 29.3053C117.951 29.5609 117.606 29.9051 117.349 30.338C117.093 30.7708 116.967 31.2559 116.967 31.7826V39.4127H113.681L113.665 25.9831H116.951L116.967 27.1774C117.422 26.6924 117.972 26.3117 118.61 26.03C119.249 25.7484 119.934 25.6076 120.672 25.6076C121.651 25.6076 122.546 25.8475 123.352 26.3273C124.163 26.8071 124.807 27.4486 125.288 28.2466C125.769 29.0498 126.01 29.9416 126.01 30.9273H126.005Z" fill="var(--fill-0, #382616)"/>
</g>
</svg>
