<svg width="1280" height="288" viewBox="0 0 1280 288" fill="none" xmlns="http://www.w3.org/2000/svg">
<circle cx="1205" cy="116" r="75" fill="#3B2513"/>
<circle cx="1130" cy="164" r="75" fill="#3B2513"/>
<ellipse cx="51" cy="47" rx="51" ry="47" transform="matrix(-1 0 0 1 220 38)" fill="#3B2513"/>
<circle cx="1125" cy="105" r="45" fill="#3B2513"/>
<ellipse cx="81" cy="75" rx="81" ry="75" transform="matrix(-1 0 0 1 198 72)" fill="#3B2513"/>
<circle cx="674" cy="190" r="75" fill="#3B2513"/>
<ellipse cx="50.5" cy="47" rx="50.5" ry="47" transform="matrix(-1 0 0 1 660 108)" fill="#3B2513"/>
<circle cx="559" cy="197" r="75" fill="#3B2513"/>
<ellipse cx="81" cy="75" rx="81" ry="75" transform="matrix(-1 0 0 1 825 108)" fill="#3B2513"/>
<circle cx="1027" cy="177" r="75" fill="#3B2513"/>
<ellipse cx="81" cy="75" rx="81" ry="75" transform="matrix(-1 0 0 1 331 138)" fill="#3B2513"/>
<circle cx="941.5" cy="163.5" r="51.5" fill="#3B2513"/>
<ellipse cx="55.5" cy="51.5" rx="55.5" ry="51.5" transform="matrix(-1 0 0 1 408 118)" fill="#3B2513"/>
<circle cx="885.5" cy="187.5" r="51.5" fill="#3B2513"/>
<ellipse cx="56" cy="51.5" rx="56" ry="51.5" transform="matrix(-1 0 0 1 483 148)" fill="#3B2513"/>
<circle cx="1065.5" cy="131.5" r="51.5" fill="#3B2513"/>
<ellipse cx="56" cy="51.5" rx="56" ry="51.5" transform="matrix(-1 0 0 1 259 85)" fill="#3B2513"/>
<circle cx="787" cy="137" r="39" fill="#3B2513"/>
<ellipse cx="56" cy="51.5" rx="56" ry="51.5" transform="matrix(-1 0 0 1 565 118)" fill="#3B2513"/>
<circle cx="495.5" cy="153.5" r="51.5" fill="#3B2513"/>
<ellipse cx="56" cy="51.5" rx="56" ry="51.5" transform="matrix(-1 0 0 1 890 108)" fill="#3B2513"/>
<circle cx="697.5" cy="107.5" r="29.5" fill="#3B2513"/>
<ellipse cx="32" cy="29.5" rx="32" ry="29.5" transform="matrix(-1 0 0 1 566 81)" fill="#3B2513"/>
<ellipse cx="81" cy="75" rx="81" ry="75" transform="matrix(-1 0 0 1 149 61)" fill="#3B2513"/>
<circle cx="1260" cy="75" r="75" fill="#3B2513"/>
<ellipse cx="81" cy="75" rx="81" ry="75" transform="matrix(-1 0 0 1 89 20)" fill="#3B2513"/>
</svg>
