<svg width="1280" height="1093" viewBox="0 0 1280 1093" fill="none" xmlns="http://www.w3.org/2000/svg">
<rect width="1280" height="832" transform="translate(0 120)" fill="white"/>
<circle cx="1214" cy="116" r="75" fill="white"/>
<circle cx="1139" cy="164" r="75" fill="white"/>
<ellipse cx="51" cy="47" rx="51" ry="47" transform="matrix(-1 0 0 1 229 38)" fill="white"/>
<circle cx="1134" cy="105" r="45" fill="white"/>
<ellipse cx="81" cy="75" rx="81" ry="75" transform="matrix(-1 0 0 1 207 72)" fill="white"/>
<circle cx="683" cy="190" r="75" fill="white"/>
<ellipse cx="50.5" cy="47" rx="50.5" ry="47" transform="matrix(-1 0 0 1 669 108)" fill="white"/>
<circle cx="568" cy="197" r="75" fill="white"/>
<ellipse cx="81" cy="75" rx="81" ry="75" transform="matrix(-1 0 0 1 834 108)" fill="white"/>
<circle cx="1036" cy="177" r="75" fill="white"/>
<ellipse cx="81" cy="75" rx="81" ry="75" transform="matrix(-1 0 0 1 340 138)" fill="white"/>
<circle cx="950.5" cy="163.5" r="51.5" fill="white"/>
<ellipse cx="55.5" cy="51.5" rx="55.5" ry="51.5" transform="matrix(-1 0 0 1 417 118)" fill="white"/>
<circle cx="894.5" cy="187.5" r="51.5" fill="white"/>
<ellipse cx="56" cy="51.5" rx="56" ry="51.5" transform="matrix(-1 0 0 1 492 148)" fill="white"/>
<circle cx="1074.5" cy="131.5" r="51.5" fill="white"/>
<ellipse cx="56" cy="51.5" rx="56" ry="51.5" transform="matrix(-1 0 0 1 268 85)" fill="white"/>
<circle cx="796" cy="137" r="39" fill="white"/>
<ellipse cx="56" cy="51.5" rx="56" ry="51.5" transform="matrix(-1 0 0 1 574 118)" fill="white"/>
<circle cx="504.5" cy="153.5" r="51.5" fill="white"/>
<ellipse cx="56" cy="51.5" rx="56" ry="51.5" transform="matrix(-1 0 0 1 899 108)" fill="white"/>
<circle cx="706.5" cy="107.5" r="29.5" fill="white"/>
<ellipse cx="32" cy="29.5" rx="32" ry="29.5" transform="matrix(-1 0 0 1 575 81)" fill="white"/>
<ellipse cx="81" cy="75" rx="81" ry="75" transform="matrix(-1 0 0 1 158 61)" fill="white"/>
<circle cx="1269" cy="75" r="75" fill="white"/>
<ellipse cx="81" cy="75" rx="81" ry="75" transform="matrix(-1 0 0 1 98 20)" fill="white"/>
<circle cx="66" cy="977" r="75" transform="rotate(180 66 977)" fill="white"/>
<circle cx="141" cy="929" r="75" transform="rotate(180 141 929)" fill="white"/>
<ellipse cx="51" cy="47" rx="51" ry="47" transform="matrix(1 0 0 -1 1051 1055)" fill="white"/>
<circle cx="146" cy="988" r="45" transform="rotate(180 146 988)" fill="white"/>
<ellipse cx="81" cy="75" rx="81" ry="75" transform="matrix(1 0 0 -1 1073 1021)" fill="white"/>
<circle cx="597" cy="903" r="75" transform="rotate(180 597 903)" fill="white"/>
<ellipse cx="50.5" cy="47" rx="50.5" ry="47" transform="matrix(1 0 0 -1 611 985)" fill="white"/>
<circle cx="705" cy="908" r="75" transform="rotate(180 705 908)" fill="white"/>
<ellipse cx="81" cy="75" rx="81" ry="75" transform="matrix(1 0 0 -1 446 985)" fill="white"/>
<circle cx="244" cy="916" r="75" transform="rotate(180 244 916)" fill="white"/>
<ellipse cx="81" cy="75" rx="81" ry="75" transform="matrix(1 0 0 -1 918 996)" fill="white"/>
<circle cx="318.5" cy="944.5" r="51.5" transform="rotate(180 318.5 944.5)" fill="white"/>
<ellipse cx="55.5" cy="51.5" rx="55.5" ry="51.5" transform="matrix(1 0 0 -1 863 1002)" fill="white"/>
<circle cx="382.5" cy="945.5" r="51.5" transform="rotate(180 382.5 945.5)" fill="white"/>
<ellipse cx="56" cy="51.5" rx="56" ry="51.5" transform="matrix(1 0 0 -1 788 945)" fill="white"/>
<circle cx="205.5" cy="961.5" r="51.5" transform="rotate(180 205.5 961.5)" fill="white"/>
<ellipse cx="56" cy="51.5" rx="56" ry="51.5" transform="matrix(1 0 0 -1 995 1016)" fill="white"/>
<circle cx="491" cy="963" r="39" transform="rotate(180 491 963)" fill="white"/>
<ellipse cx="56" cy="51.5" rx="56" ry="51.5" transform="matrix(1 0 0 -1 706 975)" fill="white"/>
<circle cx="797.5" cy="955.5" r="51.5" transform="rotate(180 797.5 955.5)" fill="white"/>
<ellipse cx="56" cy="51.5" rx="56" ry="51.5" transform="matrix(1 0 0 -1 380 1013)" fill="white"/>
<circle cx="573.5" cy="986.5" r="29.5" transform="rotate(180 573.5 986.5)" fill="white"/>
<ellipse cx="32" cy="29.5" rx="32" ry="29.5" transform="matrix(1 0 0 -1 705 1012)" fill="white"/>
<ellipse cx="81" cy="75" rx="81" ry="75" transform="matrix(1 0 0 -1 1122 1032)" fill="white"/>
<circle cx="11" cy="1018" r="75" transform="rotate(180 11 1018)" fill="white"/>
<ellipse cx="81" cy="75" rx="81" ry="75" transform="matrix(1 0 0 -1 1182 1073)" fill="white"/>
</svg>
