<svg width="1280" height="288" viewBox="0 0 1280 288" fill="none" xmlns="http://www.w3.org/2000/svg">
<circle cx="66" cy="172" r="75" transform="rotate(180 66 172)" fill="white"/>
<circle cx="141" cy="124" r="75" transform="rotate(180 141 124)" fill="white"/>
<ellipse cx="51" cy="47" rx="51" ry="47" transform="matrix(1 0 0 -1 1051 250)" fill="white"/>
<circle cx="146" cy="183" r="45" transform="rotate(180 146 183)" fill="white"/>
<ellipse cx="81" cy="75" rx="81" ry="75" transform="matrix(1 0 0 -1 1073 216)" fill="white"/>
<circle cx="597" cy="98" r="75" transform="rotate(180 597 98)" fill="white"/>
<ellipse cx="50.5" cy="47" rx="50.5" ry="47" transform="matrix(1 0 0 -1 611 180)" fill="white"/>
<circle cx="705" cy="103" r="75" transform="rotate(180 705 103)" fill="white"/>
<ellipse cx="81" cy="75" rx="81" ry="75" transform="matrix(1 0 0 -1 446 180)" fill="white"/>
<circle cx="244" cy="111" r="75" transform="rotate(180 244 111)" fill="white"/>
<ellipse cx="81" cy="75" rx="81" ry="75" transform="matrix(1 0 0 -1 918 191)" fill="white"/>
<circle cx="318.5" cy="139.5" r="51.5" transform="rotate(180 318.5 139.5)" fill="white"/>
<ellipse cx="55.5" cy="51.5" rx="55.5" ry="51.5" transform="matrix(1 0 0 -1 863 197)" fill="white"/>
<circle cx="382.5" cy="140.5" r="51.5" transform="rotate(180 382.5 140.5)" fill="white"/>
<ellipse cx="56" cy="51.5" rx="56" ry="51.5" transform="matrix(1 0 0 -1 788 140)" fill="white"/>
<circle cx="205.5" cy="156.5" r="51.5" transform="rotate(180 205.5 156.5)" fill="white"/>
<ellipse cx="56" cy="51.5" rx="56" ry="51.5" transform="matrix(1 0 0 -1 995 211)" fill="white"/>
<circle cx="491" cy="158" r="39" transform="rotate(180 491 158)" fill="white"/>
<ellipse cx="56" cy="51.5" rx="56" ry="51.5" transform="matrix(1 0 0 -1 706 170)" fill="white"/>
<circle cx="797.5" cy="150.5" r="51.5" transform="rotate(180 797.5 150.5)" fill="white"/>
<ellipse cx="56" cy="51.5" rx="56" ry="51.5" transform="matrix(1 0 0 -1 380 208)" fill="white"/>
<circle cx="573.5" cy="181.5" r="29.5" transform="rotate(180 573.5 181.5)" fill="white"/>
<ellipse cx="32" cy="29.5" rx="32" ry="29.5" transform="matrix(1 0 0 -1 705 207)" fill="white"/>
<ellipse cx="81" cy="75" rx="81" ry="75" transform="matrix(1 0 0 -1 1122 227)" fill="white"/>
<circle cx="11" cy="213" r="75" transform="rotate(180 11 213)" fill="white"/>
<ellipse cx="81" cy="75" rx="81" ry="75" transform="matrix(1 0 0 -1 1182 268)" fill="white"/>
</svg>
